<svg fill="none" xmlns="http://www.w3.org/2000/svg" class="_1b3pwwy1 rgw6ez8dz rgw6ez80v" width="24" height="24" color="var(--genie-colors-textSecondary)"><path d="M17.0325 6.95914C16.0748 6.51107 15.0508 6.18542 13.9802 6C13.8487 6.23771 13.6951 6.55743 13.5892 6.81177C12.4512 6.64062 11.3236 6.64062 10.2065 6.81177C10.1006 6.55743 9.94354 6.23771 9.81089 6C8.73916 6.18542 7.71399 6.51226 6.7563 6.96152C4.82465 9.8805 4.30101 12.727 4.56283 15.5331C5.844 16.4898 7.08562 17.071 8.30628 17.4513C8.60767 17.0365 8.87646 16.5956 9.10803 16.1309C8.66701 15.9633 8.24461 15.7565 7.84549 15.5164C7.95137 15.438 8.05494 15.356 8.15501 15.2716C10.5894 16.4102 13.2343 16.4102 15.6396 15.2716C15.7408 15.356 15.8444 15.438 15.9491 15.5164C15.5488 15.7577 15.1253 15.9645 14.6842 16.1321C14.9158 16.5956 15.1834 17.0377 15.486 17.4525C16.7078 17.0722 17.9506 16.491 19.2318 15.5331C19.539 12.2801 18.707 9.45977 17.0325 6.95914ZM9.43967 13.8074C8.70891 13.8074 8.10962 13.1251 8.10962 12.2944C8.10962 11.4636 8.69611 10.7802 9.43967 10.7802C10.1833 10.7802 10.7825 11.4624 10.7697 12.2944C10.7709 13.1251 10.1833 13.8074 9.43967 13.8074ZM14.3549 13.8074C13.6242 13.8074 13.0249 13.1251 13.0249 12.2944C13.0249 11.4636 13.6113 10.7802 14.3549 10.7802C15.0985 10.7802 15.6978 11.4624 15.685 12.2944C15.685 13.1251 15.0985 13.8074 14.3549 13.8074Z" fill="currentColor"></path></svg>