<svg fill="none" xmlns="http://www.w3.org/2000/svg" class="_1b3pwwy1 rgw6ez8dz rgw6ez80v" width="24" height="24" color="var(--genie-colors-textSecondary)"><path fill-rule="evenodd" clip-rule="evenodd" d="M12 5.25C8.27062 5.25 5.25 8.34703 5.25 12.1707C5.25 15.2332 7.18219 17.8198 9.86531 18.7368C10.2028 18.7973 10.3294 18.5897 10.3294 18.408C10.3294 18.2437 10.3209 17.6987 10.3209 17.1191C8.625 17.4391 8.18625 16.6952 8.05125 16.3059C7.97531 16.1069 7.64625 15.4927 7.35938 15.3283C7.12312 15.1986 6.78562 14.8785 7.35094 14.8698C7.8825 14.8612 8.26219 15.3716 8.38875 15.5792C8.99625 16.626 9.96656 16.3318 10.3547 16.1502C10.4138 15.7003 10.5909 15.3975 10.785 15.2245C9.28312 15.0515 7.71375 14.4546 7.71375 11.8074C7.71375 11.0548 7.97531 10.4319 8.40563 9.94745C8.33812 9.77443 8.10187 9.06505 8.47312 8.11345C8.47312 8.11345 9.03844 7.93178 10.3294 8.82283C10.8694 8.66711 11.4431 8.58925 12.0169 8.58925C12.5906 8.58925 13.1644 8.66711 13.7044 8.82283C14.9953 7.92313 15.5606 8.11345 15.5606 8.11345C15.9319 9.06505 15.6956 9.77443 15.6281 9.94745C16.0584 10.4319 16.32 11.0461 16.32 11.8074C16.32 14.4632 14.7422 15.0515 13.2403 15.2245C13.485 15.4408 13.6959 15.856 13.6959 16.5048C13.6959 17.4305 13.6875 18.1745 13.6875 18.408C13.6875 18.5897 13.8141 18.806 14.1516 18.7368C16.8178 17.8198 18.75 15.2245 18.75 12.1707C18.75 8.34703 15.7294 5.25 12 5.25Z" fill="currentColor"></path></svg>