<svg fill="none" xmlns="http://www.w3.org/2000/svg" class="_1b3pwwy1 rgw6ez8dz rgw6ez80v" width="24" height="24" color="var(--genie-colors-textSecondary)"><path d="M18.955 7.34849C18.4393 7.57725 17.885 7.73179 17.3033 7.80132C17.897 7.44542 18.3531 6.88184 18.5678 6.21026C18.012 6.53989 17.3966 6.77916 16.7415 6.90812C16.217 6.34918 15.4695 6 14.6424 6C13.0542 6 11.7665 7.28758 11.7665 8.87576C11.7665 9.10117 11.7919 9.32068 11.841 9.53116C9.45084 9.41124 7.33181 8.26628 5.91338 6.52636C5.66583 6.95109 5.52397 7.44507 5.52397 7.97213C5.52397 8.96989 6.03168 9.85012 6.80335 10.3658C6.33194 10.3509 5.8885 10.2215 5.50077 10.0061C5.50044 10.0181 5.50044 10.0302 5.50044 10.0423C5.50044 11.4356 6.49176 12.5979 7.80738 12.8623C7.56607 12.928 7.312 12.9631 7.04973 12.9631C6.86442 12.9631 6.6843 12.9451 6.50866 12.9116C6.87465 14.054 7.93669 14.8855 9.19518 14.9086C8.21094 15.68 6.97095 16.1398 5.62352 16.1398C5.39139 16.1398 5.16248 16.1261 4.9375 16.0996C6.21022 16.9156 7.72187 17.3917 9.34594 17.3917C14.6357 17.3917 17.5284 13.0096 17.5284 9.20917C17.5284 9.08449 17.5256 8.9605 17.52 8.83708C18.0819 8.43169 18.5694 7.92524 18.955 7.34849H18.955Z" fill="currentColor"></path></svg>